<?xml version="1.0" standalone="no"?>
<!DOCTYPE svg PUBLIC "-//W3C//DTD SVG 1.1//EN" "http://www.w3.org/Graphics/SVG/1.1/DTD/svg11.dtd" >
<svg>
<metadata>
Created by FontForge 20110222 at Tue Mar  3 01:35:50 2015
 By deploy user
(c) 1989, 1995, 2002 Adobe Systems Incorporated. All rights reserved.
</metadata>
<defs>
<font id="FolioStd-BoldCondensed" horiz-adv-x="426" >
  <font-face 
    font-family="Folio Std Bold Condensed"
    font-weight="700"
    font-stretch="condensed"
    units-per-em="1000"
    panose-1="2 11 7 6 2 2 2 6 2 4"
    ascent="714"
    descent="-286"
    x-height="516"
    cap-height="714"
    bbox="-167 -250 1000 906"
    underline-thickness="50"
    underline-position="-50"
    unicode-range="U+0020-FB02"
  />
<missing-glyph horiz-adv-x="500" 
d="M0 0v700h500v-700h-500zM250 395l170 255h-340zM280 350l170 -255v510zM80 50h340l-170 255zM50 605v-510l170 255z" />
    <glyph glyph-name="f_i" unicode="fi" horiz-adv-x="481" 
d="M302 515h142v-515h-142v515zM438 578h-130v136h130v-136zM269 400h-72v-400h-142v400h-49v116h49v65q0 71 32.5 102t100.5 31h81v-116h-33q-20 0 -29.5 -8.5t-9.5 -29.5v-44h72v-116z" />
    <glyph glyph-name="f_l" unicode="fl" horiz-adv-x="481" 
d="M302 714h142v-714h-142v714zM269 400h-72v-400h-142v400h-49v116h49v65q0 71 32.5 102t100.5 31h81v-116h-30q-22 0 -32 -8.5t-10 -29.5v-44h72v-116z" />
    <glyph glyph-name=".notdef" horiz-adv-x="500" 
d="M0 0v700h500v-700h-500zM250 395l170 255h-340zM280 350l170 -255v510zM80 50h340l-170 255zM50 605v-510l170 255z" />
    <glyph glyph-name=".null" horiz-adv-x="0" 
 />
    <glyph glyph-name="nonmarkingreturn" horiz-adv-x="333" 
 />
    <glyph glyph-name="space" unicode=" " horiz-adv-x="213" 
 />
    <glyph glyph-name="exclam" unicode="!" horiz-adv-x="259" 
d="M203 714l-21 -500h-104l-21 500h146zM65 130h130v-130h-130v130z" />
    <glyph glyph-name="quotedbl" unicode="&#x22;" horiz-adv-x="333" 
d="M23 444v270h112v-270h-112zM198 444v270h112v-270h-112z" />
    <glyph glyph-name="numbersign" unicode="#" 
d="M392 288l-3 -90h-72l-23 -198h-78l22 198h-78l-23 -198h-78l23 198h-72l3 90h79l14 120h-72l3 90h79l22 198h78l-22 -198h79l23 198h77l-22 -198h65l-3 -90h-72l-14 -120h65zM263 408h-79l-14 -120h79z" />
    <glyph glyph-name="dollar" unicode="$" 
d="M244 -14v-68h-62v68q-77 0 -123.5 36.5t-46.5 107.5v83h134v-41q0 -70 65 -70q33 0 51 21t18 60q0 35 -27.5 63t-67 51t-79 50t-67 71.5t-27.5 103.5q0 104 41.5 148t128.5 44v68h62v-68q162 0 162 -148v-70h-130v48q0 58 -67 58q-30 0 -46.5 -16t-16.5 -46
q0 -34 27.5 -65t67 -57.5t79 -56.5t67 -76.5t27.5 -104.5q0 -113 -40.5 -153.5t-129.5 -40.5z" />
    <glyph glyph-name="percent" unicode="%" horiz-adv-x="611" 
d="M118 604v-128q0 -10 8 -18.5t22 -8.5t22 8t8 19v128q0 11 -8 19t-22 8t-22 -8.5t-8 -18.5zM508 706h68l-468 -716h-68zM444 221v-129q0 -10 8 -18.5t22 -8.5t22 8t8 19v129q0 10 -8 18t-22 8q-13 0 -21.5 -8t-8.5 -18zM264 612v-144q0 -44 -25 -69t-61 -25h-60
q-36 0 -61 25t-25 69v144q0 44 25 69t61 25h60q36 0 61 -25t25 -69zM590 228v-144q0 -43 -25 -68.5t-61 -25.5h-60q-36 0 -61 25.5t-25 68.5v144q0 44 25 69t61 25h60q36 0 61 -25t25 -69z" />
    <glyph glyph-name="ampersand" unicode="&#x26;" horiz-adv-x="537" 
d="M270 165l-80 93q-48 -35 -48 -86q0 -27 15 -43.5t42 -16.5q35 0 71 53zM215 428q30 24 40.5 42.5t10.5 48.5q0 55 -42 55q-19 0 -30.5 -15t-11.5 -44q0 -49 33 -87zM289 341l55 -62l41 66h147l-104 -167q10 -10 21.5 -24t19 -20.5t18.5 -7.5h34v-126h-50q-13 0 -24 1.5
t-19 3t-17 6.5t-13 7.5t-12 11t-10.5 12t-12 15t-12.5 15.5q-32 -45 -67.5 -65.5t-89.5 -20.5q-90 0 -136 50t-46 138q0 54 28 101.5t75 76.5q-25 26 -40 68.5t-15 83.5q0 182 164 182q82 0 120 -40t38 -127q0 -48 -13 -81.5t-29 -51t-51 -45.5z" />
    <glyph glyph-name="quotesingle" unicode="'" horiz-adv-x="222" 
d="M55 444v270h112v-270h-112z" />
    <glyph glyph-name="parenleft" unicode="(" horiz-adv-x="296" 
d="M258 100v-100h-89q-53 0 -83 28.5t-30 86.5v484q0 58 30 86.5t83 28.5h89v-100h-34q-30 0 -43 -8t-13 -29v-440q0 -21 13 -29t43 -8h34z" />
    <glyph glyph-name="parenright" unicode=")" horiz-adv-x="296" 
d="M38 0v100h34q30 0 43 8t13 29v440q0 21 -13 29t-43 8h-34v100h89q53 0 83 -28.5t30 -86.5v-484q0 -58 -30 -86.5t-83 -28.5h-89z" />
    <glyph glyph-name="asterisk" unicode="*" horiz-adv-x="407" 
d="M373 599l-18 -62h-126v-2l100 -69l-16 -64h-70l-38 128h-2l-38 -128h-70l-16 64l100 69v2h-126l-18 62l50 41l106 -81l2 2l-42 127l53 40l53 -40l-42 -127l2 -2l106 81z" />
    <glyph glyph-name="plus" unicode="+" horiz-adv-x="600" 
d="M244 314v202h112v-202h202v-112h-202v-202h-112v202h-202v112h202z" />
    <glyph glyph-name="comma" unicode="," horiz-adv-x="213" 
d="M42 130h130v-130l-67 -130h-73l60 130h-50v130z" />
    <glyph glyph-name="hyphen" unicode="-" horiz-adv-x="315" 
d="M273 198h-231v120h231v-120z" />
    <glyph glyph-name="period" unicode="." horiz-adv-x="213" 
d="M42 130h130v-130h-130v130z" />
    <glyph glyph-name="slash" unicode="/" horiz-adv-x="296" 
d="M190 728h112l-196 -742h-112z" />
    <glyph glyph-name="zero" unicode="0" 
d="M34 142v412q0 80 44 116t135 36t135 -36t44 -116v-412q0 -80 -44.5 -116t-134.5 -36t-134.5 36t-44.5 116zM250 166v364q0 52 -37 52t-37 -52v-364q0 -51 37 -51t37 51z" />
    <glyph glyph-name="one" unicode="1" 
d="M160 0v566h-100v87l100 43h142v-696h-142z" />
    <glyph glyph-name="two" unicode="2" 
d="M393 0h-361v117q0 38 34 98t74.5 112t74.5 107.5t34 86.5q0 35 -8.5 47.5t-29.5 12.5t-29.5 -11t-8.5 -39v-44h-141v52q0 86 39.5 126.5t139.5 40.5q102 0 140.5 -39t38.5 -138q0 -57 -20.5 -108.5t-47.5 -86.5t-67.5 -92.5t-68.5 -112.5h207v-129z" />
    <glyph glyph-name="three" unicode="3" 
d="M35 210h136v-32q0 -37 8.5 -50t30.5 -13t30.5 13t8.5 50v61q0 37 -8.5 50.5t-30.5 13.5h-67v128h67q39 0 39 44v63q0 44 -39 44t-39 -44v-51h-136v67q0 80 44 116t134 36t134 -36t44 -116v-60q0 -118 -99 -122v-3q99 -4 99 -122v-105q0 -80 -44 -116t-134 -36t-134 36
t-44 116v68z" />
    <glyph glyph-name="four" unicode="4" 
d="M128 292h99v258h-2zM12 166v126l157 404h194v-404h51v-126h-51v-166h-136v166h-215z" />
    <glyph glyph-name="five" unicode="5" 
d="M35 208h136v-28q0 -39 9 -53.5t30 -14.5t30 14.5t9 53.5v125q0 39 -9 53.5t-30 14.5q-39 0 -39 -49v-8h-120v380h315v-130h-185v-117h2q7 22 34.5 31.5t57.5 9.5q48 0 82 -35t34 -92v-223q0 -81 -44 -117.5t-134 -36.5t-134 36.5t-44 117.5v68z" />
    <glyph glyph-name="six" unicode="6" 
d="M392 489h-142v46q0 47 -37 47t-37 -47v-138h2q23 37 81 37q64 0 98.5 -37t34.5 -99v-160q0 -76 -44 -112t-135 -36t-135 36t-44 112v398q0 90 40.5 130t138.5 40q97 0 138 -38t41 -116v-63zM250 151v128q0 37 -39 37q-35 0 -35 -37v-128q0 -36 35 -36q39 0 39 36z" />
    <glyph glyph-name="seven" unicode="7" 
d="M66 0l155 566h-168v130h320v-116l-157 -580h-150z" />
    <glyph glyph-name="eight" unicode="8" 
d="M172 279v-128q0 -36 41 -36t41 36v128q0 37 -41 37t-41 -37zM172 522v-32q0 -60 41 -60t41 60v32q0 60 -41 60t-41 -60zM30 138v102q0 67 23.5 98t76.5 33v2q-55 8 -74.5 41t-19.5 93v62q0 64 46 100.5t131 36.5t131 -36.5t46 -100.5v-62q0 -60 -19.5 -93t-74.5 -41v-2
q53 -4 76.5 -35t23.5 -98v-100q0 -81 -44 -114.5t-139 -33.5t-139 33.5t-44 114.5z" />
    <glyph glyph-name="nine" unicode="9" 
d="M34 208h142v-47q0 -46 37 -46t37 46v139h-2q-23 -38 -81 -38q-65 0 -99 37t-34 100v159q0 77 44 112.5t135 35.5t135 -35.5t44 -112.5v-398q0 -89 -40.5 -129.5t-138.5 -40.5q-97 0 -138 38t-41 116v64zM176 545v-128q0 -36 37 -36t37 36v128q0 37 -37 37t-37 -37z" />
    <glyph glyph-name="colon" unicode=":" horiz-adv-x="213" 
d="M42 130h130v-130h-130v130zM42 489h130v-130h-130v130z" />
    <glyph glyph-name="semicolon" unicode=";" horiz-adv-x="213" 
d="M42 130h130v-130l-67 -130h-73l60 130h-50v130zM42 490h130v-130h-130v130z" />
    <glyph glyph-name="less" unicode="&#x3c;" horiz-adv-x="600" 
d="M558 411l-369 -153l369 -153v-108l-516 216v90l516 216v-108z" />
    <glyph glyph-name="equal" unicode="=" horiz-adv-x="600" 
d="M558 424v-112h-516v112h516zM558 204v-112h-516v112h516z" />
    <glyph glyph-name="greater" unicode="&#x3e;" horiz-adv-x="600" 
d="M42 105l368 153l-368 153v108l516 -216v-90l-516 -216v108z" />
    <glyph glyph-name="question" unicode="?" horiz-adv-x="407" 
d="M255 216h-130v100q0 23 9 45t18.5 34.5t27.5 33.5q26 30 40 55.5t14 59.5q0 72 -36 72t-36 -72v-45h-130v60q0 92 41.5 130.5t130.5 38.5q172 0 172 -174q0 -63 -16 -99.5t-44 -66.5q-1 -1 -14 -14.5t-15.5 -17t-11.5 -15.5t-11.5 -20t-5.5 -21t-3 -28v-56zM125 130h130
v-130h-130v130z" />
    <glyph glyph-name="at" unicode="@" horiz-adv-x="800" 
d="M382 245q47 0 78 36.5t31 83.5q0 36 -22 58.5t-57 22.5q-45 0 -76 -36t-31 -81q0 -37 21 -60.5t56 -23.5zM519 488l12 50h90l-50 -244q-6 -30 -6 -37q0 -21 14 -21q38 0 69 43.5t31 118.5q0 117 -73 181.5t-191 64.5q-124 0 -199.5 -81t-75.5 -207q0 -130 81 -209
t210 -79q111 0 197 72h92q-52 -74 -128.5 -114t-168.5 -40q-160 0 -272.5 105.5t-112.5 264.5q0 157 111 264.5t269 107.5q138 0 241.5 -84.5t103.5 -217.5q0 -62 -20.5 -113.5t-50.5 -82.5t-66 -52.5t-65 -30t-50 -8.5q-22 0 -37.5 13.5t-16.5 37.5l-2 1q-46 -52 -100 -52
q-65 0 -113.5 52.5t-48.5 122.5q0 94 58.5 165t148.5 71q79 0 119 -62z" />
    <glyph glyph-name="A" unicode="A" horiz-adv-x="444" 
d="M156 0h-152l121 714h194l121 -714h-151l-17 126h-101zM223 594l-37 -338h70l-31 338h-2z" />
    <glyph glyph-name="B" unicode="B" horiz-adv-x="444" 
d="M190 584v-146h37q26 0 34.5 13.5t8.5 59.5q0 45 -9 59t-34 14h-37zM44 0v714h213q83 0 121 -36t38 -110v-62q0 -102 -88 -130v-2q92 -14 92 -121v-107q0 -74 -38 -110t-121 -36h-217zM190 308v-178h34q32 0 40.5 15t9.5 74q0 59 -9 74t-41 15h-34z" />
    <glyph glyph-name="C" unicode="C" 
d="M34 154v406q0 89 42.5 128.5t141.5 39.5t141.5 -39.5t42.5 -128.5v-101h-146v107q0 15 -11 23.5t-27 8.5q-20 0 -29 -11t-9 -39v-382q0 -28 9 -39t29 -11q16 0 27 8.5t11 23.5v132h146v-126q0 -89 -42.5 -128.5t-141.5 -39.5t-141.5 39.5t-42.5 128.5z" />
    <glyph glyph-name="D" unicode="D" horiz-adv-x="444" 
d="M44 0v714h180q101 0 144.5 -35.5t43.5 -132.5v-378q0 -97 -43.5 -132.5t-144.5 -35.5h-180zM190 584v-454h34q23 0 32.5 13.5t9.5 48.5v330q0 35 -9.5 48.5t-32.5 13.5h-34z" />
    <glyph glyph-name="E" unicode="E" horiz-adv-x="370" 
d="M44 0v714h300v-130h-154v-146h147v-130h-147v-178h154v-130h-300z" />
    <glyph glyph-name="F" unicode="F" horiz-adv-x="370" 
d="M44 0v714h300v-130h-154v-146h147v-130h-147v-308h-146z" />
    <glyph glyph-name="G" unicode="G" horiz-adv-x="444" 
d="M410 438v-438h-95l-21 52q-24 -36 -48.5 -51t-69.5 -15q-65 0 -103.5 37t-38.5 104v433q0 89 42.5 128.5t141.5 39.5q105 0 148.5 -39t43.5 -129v-44h-146v43q0 21 -9.5 30t-32.5 9t-32.5 -9t-9.5 -30v-404q0 -21 9.5 -30t32.5 -9t32.5 9t9.5 30v153h-43v130h189z" />
    <glyph glyph-name="H" unicode="H" horiz-adv-x="463" 
d="M44 0v714h146v-276h84v276h146v-714h-146v308h-84v-308h-146z" />
    <glyph glyph-name="I" unicode="I" horiz-adv-x="241" 
d="M194 0h-146v714h146v-714z" />
    <glyph glyph-name="J" unicode="J" horiz-adv-x="407" 
d="M5 225h142v-65q0 -24 8.5 -34t29.5 -10t29.5 10t8.5 34v554h146v-560q0 -96 -40.5 -132t-139.5 -36t-141.5 36t-42.5 132v71z" />
    <glyph glyph-name="K" unicode="K" horiz-adv-x="463" 
d="M190 714v-338h2l112 338h154l-124 -350l127 -364h-154l-115 352h-2v-352h-146v714h146z" />
    <glyph glyph-name="L" unicode="L" horiz-adv-x="352" 
d="M344 0h-300v714h146v-584h154v-130z" />
    <glyph glyph-name="M" unicode="M" horiz-adv-x="685" 
d="M272 714l71 -566h2l68 566h232v-714h-138v610h-2l-90 -610h-145l-90 610h-2v-610h-138v714h232z" />
    <glyph glyph-name="N" unicode="N" horiz-adv-x="537" 
d="M355 211v503h138v-714h-183l-126 499h-2v-499h-138v714h185l124 -503h2z" />
    <glyph glyph-name="O" unicode="O" horiz-adv-x="444" 
d="M180 559v-404q0 -21 9.5 -30t32.5 -9t32.5 9t9.5 30v404q0 21 -9.5 30t-32.5 9t-32.5 -9t-9.5 -30zM34 154v406q0 97 43.5 132.5t144.5 35.5t144.5 -35.5t43.5 -132.5v-406q0 -97 -43.5 -132.5t-144.5 -35.5t-144.5 35.5t-43.5 132.5z" />
    <glyph glyph-name="P" unicode="P" 
d="M190 252v-252h-146v714h180q108 0 148 -34t40 -129v-136q0 -95 -40 -129t-148 -34h-34zM190 584v-202h37q25 0 34 18.5t9 75.5q0 74 -7.5 91t-35.5 17h-37z" />
    <glyph glyph-name="Q" unicode="Q" horiz-adv-x="444" 
d="M180 559v-404q0 -21 9.5 -30t32.5 -9t32.5 9t9.5 30v404q0 21 -9.5 30t-32.5 9t-32.5 -9t-9.5 -30zM370 -68v-112h-99q-57 0 -81 22.5t-24 87.5v61q-69 8 -100 43q-32 38 -32 120v406q0 97 43.5 132.5t144.5 35.5t144.5 -35.5t43.5 -132.5v-406q0 -83 -31.5 -120
t-100.5 -44v-21q0 -17 10 -27t26 -10h56z" />
    <glyph glyph-name="R" unicode="R" horiz-adv-x="444" 
d="M190 0h-146v714h187q99 0 142 -31.5t43 -114.5v-85q0 -39 -19.5 -69.5t-64.5 -37.5v-2q46 -8 67 -41t21 -100v-155q0 -44 1.5 -57t8.5 -21h-147q-9 16 -9 29v243q0 36 -47 36h-37v-308zM190 584v-146h37q25 0 34 14t9 59q0 44 -8.5 58.5t-34.5 14.5h-37z" />
    <glyph glyph-name="S" unicode="S" horiz-adv-x="407" 
d="M388 499h-142v40q0 59 -42 59q-22 0 -32 -13.5t-10 -45.5q0 -29 17 -54t42.5 -42.5t55.5 -42t55.5 -50.5t42.5 -70t17 -99q0 -111 -40.5 -153t-148.5 -42q-102 0 -144.5 37.5t-42.5 134.5v67h146v-50q0 -59 42 -59q22 0 32 13.5t10 45.5q0 30 -13 54.5t-33 42.5t-44.5 36
t-49 39t-45 47t-33 65t-12.5 87q0 98 42 140t146 42q95 0 139.5 -40t44.5 -133v-56z" />
    <glyph glyph-name="T" unicode="T" horiz-adv-x="370" 
d="M112 0v584h-108v130h362v-130h-108v-584h-146z" />
    <glyph glyph-name="U" unicode="U" horiz-adv-x="444" 
d="M410 714v-560q0 -97 -43.5 -132.5t-144.5 -35.5t-144.5 35.5t-43.5 132.5v560h146v-538q0 -36 9 -48t33 -12t33 12t9 48v538h146z" />
    <glyph glyph-name="V" unicode="V" horiz-adv-x="444" 
d="M291 714h149l-121 -714h-194l-121 714h151l66 -553h2z" />
    <glyph glyph-name="W" unicode="W" horiz-adv-x="722" 
d="M114 0l-110 714h151l59 -558h2l63 558h164l65 -559h2l57 559h151l-110 -714h-184l-62 546h-2l-62 -546h-184z" />
    <glyph glyph-name="X" unicode="X" horiz-adv-x="481" 
d="M4 0l156 372l-143 342h153l71 -194l68 194h153l-143 -342l158 -372h-155l-82 219l-81 -219h-155z" />
    <glyph glyph-name="Y" unicode="Y" horiz-adv-x="463" 
d="M157 714l74 -257h2l73 257h153l-155 -442v-272h-146v272l-154 442h153z" />
    <glyph glyph-name="Z" unicode="Z" horiz-adv-x="389" 
d="M379 0h-357v130l175 454h-170v130h335v-130l-182 -454h199v-130z" />
    <glyph glyph-name="bracketleft" unicode="[" horiz-adv-x="296" 
d="M258 0h-202v714h202v-100h-90v-514h90v-100z" />
    <glyph glyph-name="backslash" unicode="\" horiz-adv-x="278" 
d="M-15 728h112l196 -742h-112z" />
    <glyph glyph-name="bracketright" unicode="]" horiz-adv-x="296" 
d="M240 0h-202v100h90v514h-90v100h202v-714z" />
    <glyph glyph-name="asciicircum" unicode="^" horiz-adv-x="600" 
d="M180 321h-110l180 375h100l180 -375h-110l-120 264z" />
    <glyph glyph-name="underscore" unicode="_" horiz-adv-x="500" 
d="M500 -125h-500v50h500v-50z" />
    <glyph glyph-name="grave" unicode="`" horiz-adv-x="222" 
d="M168 580h-74l-105 142h118z" />
    <glyph glyph-name="a" unicode="a" horiz-adv-x="407" 
d="M162 351h-124v49q0 62 43.5 96t123.5 34t123.5 -34t43.5 -96v-302q0 -41 16 -98h-137q-9 22 -9 56h-2q-27 -70 -102 -70q-61 0 -89.5 34.5t-28.5 113.5v30q0 50 16 82.5t40 45.5t52 22.5t52 14.5t40 19.5t16 39.5q0 16 -8 28t-24 12q-26 0 -34 -16.5t-8 -60.5zM230 131
v116q-6 -4 -23 -15t-20.5 -14.5t-12 -13.5t-10.5 -21.5t-2 -28.5v-13q0 -43 41 -43q10 0 18.5 8.5t8.5 24.5z" />
    <glyph glyph-name="b" unicode="b" 
d="M37 714h142v-252h2q8 29 35.5 48.5t69.5 19.5q46 0 74.5 -30.5t28.5 -82.5v-318q0 -52 -28.5 -82.5t-74.5 -30.5q-41 0 -71 23t-40 59h-2v-68h-136v714zM247 142v232q0 44 -30 44q-15 0 -26.5 -11.5t-11.5 -32.5v-232q0 -21 11.5 -32.5t26.5 -11.5q30 0 30 44z" />
    <glyph glyph-name="c" unicode="c" horiz-adv-x="389" 
d="M235 206h130v-77q0 -143 -171 -143q-83 0 -126 37t-43 106v258q0 69 43 106t126 37q171 0 171 -143v-67h-130v58q0 40 -34 40t-34 -40v-240q0 -40 34 -40t34 40v68z" />
    <glyph glyph-name="d" unicode="d" 
d="M253 0v71q-11 -38 -41.5 -61.5t-71.5 -23.5q-46 0 -74.5 30.5t-28.5 82.5v318q0 52 28.5 82.5t74.5 30.5q42 0 69.5 -19.5t35.5 -48.5h2v252h142v-714h-136zM179 374v-232q0 -44 30 -44q15 0 26.5 11.5t11.5 32.5v232q0 21 -11.5 32.5t-26.5 11.5q-30 0 -30 -44z" />
    <glyph glyph-name="e" unicode="e" horiz-adv-x="407" 
d="M378 224h-206v-80q0 -46 38 -46t38 46v28h130v-46q0 -140 -174 -140t-174 140v231q0 91 39.5 132t134.5 41t134.5 -41t39.5 -132v-133zM172 322h76v47q0 49 -38 49t-38 -49v-47z" />
    <glyph glyph-name="f" unicode="f" horiz-adv-x="278" 
d="M272 400h-75v-400h-142v400h-49v116h49v65q0 71 32.5 102t100.5 31h84v-116h-33q-22 0 -32 -8.5t-10 -29.5v-44h75v-116z" />
    <glyph glyph-name="g" unicode="g" 
d="M43 -34h136q0 -42 34 -42t34 43v91h-2q-36 -58 -104 -58q-44 0 -74 29.5t-30 84.5v302q0 55 30 84.5t74 29.5q45 0 75 -24.5t35 -49.5h2v60h136v-532q0 -91 -41 -127.5t-133 -36.5q-98 0 -135 30.5t-37 115.5zM179 374v-218q0 -44 30 -44q15 0 26.5 11.5t11.5 32.5v218
q0 21 -11.5 32.5t-26.5 11.5q-30 0 -30 -44z" />
    <glyph glyph-name="h" unicode="h" 
d="M37 0v714h136v-258h2q13 31 42 52.5t65 21.5q49 0 78 -30.5t29 -93.5v-406h-142v368q0 50 -32 50q-19 0 -27.5 -13t-8.5 -47v-358h-142z" />
    <glyph glyph-name="i" unicode="i" horiz-adv-x="222" 
d="M40 516h142v-516h-142v516zM176 578h-130v136h130v-136z" />
    <glyph glyph-name="j" unicode="j" horiz-adv-x="222" 
d="M40 516h142v-588q0 -51 -37 -79.5t-85 -28.5h-79v126h35q13 0 18.5 11.5t5.5 42.5v516zM176 714v-136h-130v136h130z" />
    <glyph glyph-name="k" unicode="k" horiz-adv-x="407" 
d="M37 0v714h142v-444l2 -1l74 247h141l-80 -245l84 -271h-141l-78 262h-2v-262h-142z" />
    <glyph glyph-name="l" unicode="l" horiz-adv-x="222" 
d="M40 714h142v-714h-142v714z" />
    <glyph glyph-name="m" unicode="m" horiz-adv-x="630" 
d="M592 0h-142v368q0 29 -6.5 39.5t-21.5 10.5q-20 0 -28 -14t-8 -46v-358h-142v368q0 29 -6.5 39.5t-21.5 10.5q-20 0 -28 -14t-8 -46v-358h-142v516h136v-58h2q6 25 35.5 48.5t71.5 23.5q77 0 96 -74h2q12 31 40.5 52.5t65.5 21.5q49 0 77 -30.5t28 -93.5v-406z" />
    <glyph glyph-name="n" unicode="n" 
d="M37 0v516h136v-60h2q13 31 42 52.5t65 21.5q49 0 78 -30.5t29 -93.5v-406h-142v368q0 50 -32 50q-19 0 -27.5 -13t-8.5 -47v-358h-142z" />
    <glyph glyph-name="o" unicode="o" horiz-adv-x="407" 
d="M171 374v-232q0 -24 7.5 -34t25.5 -10t25.5 10t7.5 34v232q0 24 -7.5 34t-25.5 10t-25.5 -10t-7.5 -34zM29 141v234q0 79 47.5 117t127.5 38t127.5 -38t47.5 -117v-234q0 -79 -47.5 -117t-127.5 -38t-127.5 38t-47.5 117z" />
    <glyph glyph-name="p" unicode="p" 
d="M173 516v-68h2q10 36 40 59t71 23q46 0 74.5 -30.5t28.5 -82.5v-318q0 -52 -28.5 -82.5t-74.5 -30.5q-42 0 -69.5 19.5t-35.5 48.5h-2v-234h-142v696h136zM247 142v232q0 44 -30 44q-15 0 -26.5 -11.5t-11.5 -32.5v-232q0 -21 11.5 -32.5t26.5 -11.5q30 0 30 44z" />
    <glyph glyph-name="q" unicode="q" 
d="M389 -180h-142v234h-2q-8 -29 -35.5 -48.5t-69.5 -19.5q-46 0 -74.5 30.5t-28.5 82.5v318q0 52 28.5 82.5t74.5 30.5q41 0 71 -23t40 -59h2v68h136v-696zM179 374v-232q0 -44 30 -44q15 0 26.5 11.5t11.5 32.5v232q0 21 -11.5 32.5t-26.5 11.5q-30 0 -30 -44z" />
    <glyph glyph-name="r" unicode="r" horiz-adv-x="296" 
d="M37 0v516h137v-102h2q28 62 51.5 83t66.5 27v-173h-2q-14 3 -27 3q-38 0 -62 -25t-24 -70v-259h-142z" />
    <glyph glyph-name="s" unicode="s" horiz-adv-x="389" 
d="M356 352h-130v32q0 15 -10 24.5t-25 9.5q-33 0 -33 -31q0 -23 21.5 -40.5t52.5 -31t62 -31t52.5 -49.5t21.5 -77q4 -86 -38.5 -129t-134.5 -43q-173 0 -173 152v40h136v-22q0 -58 37 -58q31 0 31 41q0 24 -15 41t-38 26.5t-49 23.5t-49 30.5t-38 50t-15 79.5
q0 65 43.5 102.5t129.5 37.5q161 0 161 -130v-48z" />
    <glyph glyph-name="t" unicode="t" horiz-adv-x="278" 
d="M52 516v137h142v-137h77v-116h-77v-210q0 -42 7 -53t31 -11h39v-126h-140q-39 0 -59 23.5t-20 64.5v312h-45v116h45z" />
    <glyph glyph-name="u" unicode="u" 
d="M389 516v-516h-136v60h-2q-13 -31 -42 -52.5t-65 -21.5q-49 0 -78 30.5t-29 93.5v406h142v-368q0 -50 32 -50q19 0 27.5 13t8.5 47v358h142z" />
    <glyph glyph-name="v" unicode="v" horiz-adv-x="407" 
d="M4 516h146l53 -390h2l52 390h146l-118 -516h-163z" />
    <glyph glyph-name="w" unicode="w" horiz-adv-x="630" 
d="M104 0l-97 516h145l39 -386h2l45 386h157l44 -386h2l40 386h142l-97 -516h-170l-39 386h-2l-41 -386h-170z" />
    <glyph glyph-name="x" unicode="x" horiz-adv-x="389" 
d="M196 334l33 182h145l-89 -241l97 -275h-146l-41 190h-2l-40 -190h-146l97 275l-85 241h145l30 -182h2z" />
    <glyph glyph-name="y" unicode="y" horiz-adv-x="407" 
d="M63 -180v126h53q31 0 31 22q0 6 -6 24l-139 524h149l61 -377h2l41 377h150l-134 -593q-12 -54 -38.5 -78.5t-78.5 -24.5h-91z" />
    <glyph glyph-name="z" unicode="z" horiz-adv-x="333" 
d="M12 400v116h306v-116l-144 -284h148v-116h-310v116l144 284h-144z" />
    <glyph glyph-name="braceleft" unicode="{" horiz-adv-x="296" 
d="M36 308v100q18 -1 34 11.5t16 41.5v149q0 104 98 104h74v-100h-18q-24 0 -33 -9t-9 -35v-130q0 -64 -80 -81v-2q27 -1 53.5 -19t26.5 -58v-136q0 -26 9 -35t33 -9h18v-100h-74q-98 0 -98 104v149q0 29 -15.5 41.5t-34.5 13.5z" />
    <glyph glyph-name="bar" unicode="|" horiz-adv-x="222" 
d="M55 750h112v-1000h-112v1000z" />
    <glyph glyph-name="braceright" unicode="}" horiz-adv-x="296" 
d="M260 408v-100q-19 -1 -34.5 -13.5t-15.5 -41.5v-149q0 -104 -98 -104h-74v100h18q24 0 33 9t9 35v136q0 40 26.5 58t53.5 19v2q-80 17 -80 81v130q0 26 -9 35t-33 9h-18v100h74q98 0 98 -104v-149q0 -29 16 -41.5t34 -11.5z" />
    <glyph glyph-name="asciitilde" unicode="~" horiz-adv-x="600" 
d="M494 348l36 -90q-43 -86 -124 -86q-39 0 -111 32q-7 3 -21.5 9.5t-23 10t-20 8t-20.5 6.5t-17 2q-19 0 -36 -12t-27 -25t-24 -35l-36 90q43 86 124 86q39 0 111 -32q7 -3 21.5 -9.5t23 -10t20 -8t20.5 -6.5t17 -2q19 0 36 12t27 25t24 35z" />
    <glyph glyph-name="uni00A0" unicode="&#xa0;" horiz-adv-x="213" 
 />
    <glyph glyph-name="exclamdown" unicode="&#xa1;" horiz-adv-x="259" 
d="M56 -166l21 500h104l21 -500h-146zM194 418h-130v130h130v-130z" />
    <glyph glyph-name="cent" unicode="&#xa2;" 
d="M43 129v258q0 65 39.5 101.5t105.5 41.5v54h62v-54q61 -9 97 -45q36 -38 36 -98v-65h-130v46q0 50 -34 50t-34 -50v-220q0 -50 34 -50t34 50v58h130v-77q0 -61 -35.5 -97.5t-97.5 -45.5v-70h-62v70q-66 5 -105.5 41.5t-39.5 101.5z" />
    <glyph glyph-name="sterling" unicode="&#xa3;" 
d="M109 0h-92q-3 61 20 103t79 47q16 32 16 71q0 25 -38 109h-90v55h66q-39 69 -39 155q0 81 50 123.5t147 42.5q89 0 130 -45.5t41 -137.5v-37h-130v31q0 28 -15 45t-34 17q-43 0 -43 -54q0 -15 5.5 -35t19 -55t18.5 -50h100v-55h-79q17 -40 17 -71q0 -35 -21 -68t-44 -43
l2 -2q18 3 62.5 -13.5t55.5 -16.5q5 0 8 2t5 6.5t2.5 7.5l1.5 9t1 7h91q2 -158 -123 -158q-30 0 -85 19.5t-68 19.5q-34 0 -37 -29z" />
    <glyph glyph-name="currency" unicode="&#xa4;" 
d="M29 490l46 46l42 -41q33 31 96 31t96 -31l42 41l46 -46l-40 -40q31 -33 31 -102t-31 -102l40 -40l-46 -46l-42 41q-33 -31 -96 -31t-96 31l-42 -41l-46 46l40 40q-31 33 -31 102t31 102zM118 348q0 -43 27 -73.5t68 -30.5t68 30.5t27 73.5t-27 73.5t-68 30.5t-68 -30.5
t-27 -73.5z" />
    <glyph glyph-name="yen" unicode="&#xa5;" 
d="M312 377l-23 -73h116v-56h-122v-248h-142v248h-119v56h115l-23 73h-92v56h75l-83 263h137l62 -243h2l60 243h137l-82 -263h75v-56h-93z" />
    <glyph glyph-name="brokenbar" unicode="&#xa6;" horiz-adv-x="222" 
d="M55 675h112v-350h-112v350zM55 175h112v-350h-112v350z" />
    <glyph glyph-name="section" unicode="&#xa7;" horiz-adv-x="481" 
d="M408 524h-124l-2 31q0 19 -10 31.5t-29 12.5q-39 0 -39 -56q0 -25 24.5 -43t59.5 -32.5t70 -34t59.5 -60t24.5 -98.5q0 -75 -20.5 -106.5t-65.5 -39.5v-2q11 -2 23 -12t23.5 -38.5t11.5 -69.5q0 -85 -43 -126t-134 -41q-87 0 -129 39t-42 107v46h132v-38q0 -19 10 -31
t29 -12q39 0 39 55q0 25 -24.5 44t-59.5 34.5t-70 35.5t-59.5 58t-24.5 92q0 74 21.5 108.5t66.5 44.5v2q-18 4 -36 39.5t-18 79.5q0 166 171 166q84 0 124.5 -35.5t40.5 -112.5v-38zM240 208q35 0 49.5 16t14.5 51q0 36 -14.5 52t-49.5 16t-49.5 -16t-14.5 -52
q0 -35 14.5 -51t49.5 -16z" />
    <glyph glyph-name="dieresis" unicode="&#xa8;" horiz-adv-x="222" 
d="M-19 598v108h94v-108h-94zM147 598v108h94v-108h-94z" />
    <glyph glyph-name="copyright" unicode="&#xa9;" horiz-adv-x="800" 
d="M17 357q0 168 113 269.5t270 101.5t270 -101.5t113 -269.5t-113 -269.5t-270 -101.5t-270 101.5t-113 269.5zM129 357q0 -124 78.5 -204.5t192.5 -80.5q113 0 192 80.5t79 204.5t-79 204.5t-192 80.5q-114 0 -192.5 -80.5t-78.5 -204.5zM504 301h90q-12 -74 -62 -115.5
t-117 -41.5q-93 0 -150 61.5t-57 154.5q0 95 55.5 155.5t149.5 60.5q69 0 117 -39.5t60 -112.5h-86q-13 64 -91 64q-48 0 -74.5 -33.5t-26.5 -92.5q0 -56 28.5 -93t74.5 -37q82 0 89 69z" />
    <glyph glyph-name="ordfeminine" unicode="&#xaa;" horiz-adv-x="244" 
d="M96 599h-80v29q0 37 28 57.5t80 20.5t80.5 -20.5t28.5 -57.5v-181q0 -21 10 -59h-89q-6 15 -6 34h-2q-16 -42 -65 -42q-40 0 -58.5 20.5t-18.5 67.5v18q0 35 14.5 56t35 28.5t41 11.5t35 13t14.5 26q0 24 -20 24q-17 0 -22.5 -10t-5.5 -36zM141 467v69q-5 -3 -13 -8
t-11.5 -7t-8.5 -6.5t-7 -8.5t-3.5 -10.5t-1.5 -15.5v-7q0 -26 27 -26q6 0 12 5t6 15z" />
    <glyph glyph-name="guillemotleft" unicode="&#xab;" horiz-adv-x="407" 
d="M20 258l97 125h104l-97 -125l97 -125h-104zM186 258l97 125h104l-97 -125l97 -125h-104z" />
    <glyph glyph-name="logicalnot" unicode="&#xac;" horiz-adv-x="600" 
d="M446 92v220h-404v112h516v-332h-112z" />
    <glyph glyph-name="uni00AD" unicode="&#xad;" horiz-adv-x="315" 
d="M273 198h-231v120h231v-120z" />
    <glyph glyph-name="registered" unicode="&#xae;" horiz-adv-x="800" 
d="M17 357q0 168 113 269.5t270 101.5t270 -101.5t113 -269.5t-113 -269.5t-270 -101.5t-270 101.5t-113 269.5zM129 357q0 -124 78.5 -204.5t192.5 -80.5q113 0 192 80.5t79 204.5t-79 204.5t-192 80.5q-114 0 -192.5 -80.5t-78.5 -204.5zM337 326v-172h-88v406h153
q84 0 125 -27.5t41 -94.5q0 -102 -112 -108l106 -176h-89l-95 172h-41zM337 492v-98h77q36 0 50 12.5t14 40.5q0 45 -79 45h-62z" />
    <glyph glyph-name="macron" unicode="&#xaf;" horiz-adv-x="222" 
d="M-28 618v64h278v-64h-278z" />
    <glyph glyph-name="degree" unicode="&#xb0;" horiz-adv-x="400" 
d="M57 563q0 60 41.5 101.5t101.5 41.5t101.5 -41.5t41.5 -101.5t-41.5 -101.5t-101.5 -41.5t-101.5 41.5t-41.5 101.5zM129 563q0 -34 19.5 -54.5t51.5 -20.5t51.5 20.5t19.5 54.5t-19.5 54.5t-51.5 20.5t-51.5 -20.5t-19.5 -54.5z" />
    <glyph glyph-name="plusminus" unicode="&#xb1;" horiz-adv-x="600" 
d="M244 390v126h112v-126h202v-112h-202v-126h-112v126h-202v112h202zM42 0v112h516v-112h-516z" />
    <glyph glyph-name="twosuperior" unicode="&#xb2;" horiz-adv-x="255" 
d="M245 282h-235v70q0 29 35 78t70.5 95.5t35.5 69.5q0 21 -5.5 28.5t-19.5 7.5q-24 0 -24 -30v-27h-92v31q0 52 25.5 76.5t90.5 24.5q66 0 91.5 -23.5t25.5 -83.5q0 -34 -13.5 -65t-31 -52t-44 -55.5t-44.5 -67.5h135v-77z" />
    <glyph glyph-name="threesuperior" unicode="&#xb3;" horiz-adv-x="255" 
d="M12 408h88v-19q0 -22 5.5 -30t20.5 -8q14 0 19.5 8t5.5 30v36q0 22 -5.5 30.5t-19.5 8.5h-44v77h44q25 0 25 26v38q0 26 -25 26q-26 0 -26 -26v-31h-88v40q0 49 28.5 70.5t86.5 21.5q59 0 87.5 -21.5t28.5 -70.5v-36q0 -70 -64 -73v-2q64 -1 64 -73v-63
q0 -48 -28.5 -69.5t-87.5 -21.5q-58 0 -86.5 21.5t-28.5 69.5v41z" />
    <glyph glyph-name="acute" unicode="&#xb4;" horiz-adv-x="222" 
d="M128 580h-74l61 142h118z" />
    <glyph glyph-name="mu" unicode="&#xb5;" 
d="M389 516v-516h-136v68h-2q-19 -61 -72 -76v-172h-142v696h142v-374q0 -44 31 -44q15 0 26 11.5t11 32.5v374h142z" />
    <glyph glyph-name="paragraph" unicode="&#xb6;" horiz-adv-x="620" 
d="M266 -180v542q-99 0 -155.5 46.5t-56.5 126.5q0 88 55.5 133.5t178.5 45.5h273v-894h-112v808h-71v-808h-112z" />
    <glyph glyph-name="periodcentered" unicode="&#xb7;" horiz-adv-x="213" 
d="M35 258q0 29 21 50t50 21t50 -21t21 -50t-21 -50t-50 -21t-50 21t-21 50z" />
    <glyph glyph-name="cedilla" unicode="&#xb8;" horiz-adv-x="222" 
d="M96 0h50l-41 -59q18 3 36 3q35 0 57.5 -21t22.5 -58q0 -39 -33 -62t-86 -23q-56 0 -96 19l16 39q35 -14 67 -14q19 0 35.5 9.5t16.5 28.5q0 38 -45 38q-12 0 -37 -5l-18 17z" />
    <glyph glyph-name="onesuperior" unicode="&#xb9;" horiz-adv-x="255" 
d="M90 282v340h-65v52l65 26h92v-418h-92z" />
    <glyph glyph-name="ordmasculine" unicode="&#xba;" horiz-adv-x="244" 
d="M100 613v-140q0 -27 22 -27q21 0 21 27v140q0 27 -21 27q-22 0 -22 -27zM8 473v140q0 93 114 93q113 0 113 -93v-140q0 -93 -113 -93q-114 0 -114 93z" />
    <glyph glyph-name="guillemotright" unicode="&#xbb;" horiz-adv-x="407" 
d="M290 383l97 -125l-97 -125h-104l97 125l-97 125h104zM124 383l97 -125l-97 -125h-104l97 125l-97 125h104z" />
    <glyph glyph-name="onequarter" unicode="&#xbc;" horiz-adv-x="639" 
d="M426 176h65v154h-2zM350 100v75l103 243h126v-242h33v-76h-33v-100h-88v100h-141zM486 706h76l-425 -716h-76zM90 282v340h-65v52l65 26h92v-418h-92z" />
    <glyph glyph-name="onehalf" unicode="&#xbd;" horiz-adv-x="639" 
d="M477 706h76l-425 -716h-76zM90 282v340h-65v52l65 26h92v-418h-92zM629 0h-235v70q0 29 35 78t70.5 95.5t35.5 69.5q0 21 -5.5 28.5t-19.5 7.5q-24 0 -24 -30v-27h-92v31q0 52 25.5 76.5t90.5 24.5q66 0 91.5 -23.5t25.5 -83.5q0 -34 -13.5 -65t-31 -52t-44 -55.5
t-44.5 -67.5h135v-77z" />
    <glyph glyph-name="threequarters" unicode="&#xbe;" horiz-adv-x="639" 
d="M426 176h65v154h-2zM350 100v75l103 243h126v-242h33v-76h-33v-100h-88v100h-141zM501 706h76l-425 -716h-76zM12 408h88v-19q0 -22 5.5 -30t20.5 -8q14 0 19.5 8t5.5 30v36q0 22 -5.5 30.5t-19.5 8.5h-44v77h44q25 0 25 26v38q0 26 -25 26q-26 0 -26 -26v-31h-88v40
q0 49 28.5 70.5t86.5 21.5q59 0 87.5 -21.5t28.5 -70.5v-36q0 -70 -64 -73v-2q64 -1 64 -73v-63q0 -48 -28.5 -69.5t-87.5 -21.5q-58 0 -86.5 21.5t-28.5 69.5v41z" />
    <glyph glyph-name="questiondown" unicode="&#xbf;" horiz-adv-x="407" 
d="M152 332h130v-100q0 -23 -9 -45t-18.5 -34.5t-27.5 -33.5q-26 -30 -40 -55.5t-14 -59.5q0 -72 36 -72t36 72v45h130v-60q0 -92 -41.5 -130.5t-130.5 -38.5q-172 0 -172 174q0 63 16 99.5t44 66.5q1 1 14 14.5t15.5 17t11.5 15.5t11.5 20t5.5 21t3 28v56zM282 418h-130
v130h130v-130z" />
    <glyph glyph-name="Agrave" unicode="&#xc0;" horiz-adv-x="444" 
d="M156 0h-152l121 714h194l121 -714h-151l-17 126h-101zM223 594l-37 -338h70l-31 338h-2zM279 758h-74l-105 142h118z" />
    <glyph glyph-name="Aacute" unicode="&#xc1;" horiz-adv-x="444" 
d="M156 0h-152l121 714h194l121 -714h-151l-17 126h-101zM223 594l-37 -338h70l-31 338h-2zM239 758h-74l61 142h118z" />
    <glyph glyph-name="Acircumflex" unicode="&#xc2;" horiz-adv-x="444" 
d="M156 0h-152l121 714h194l121 -714h-151l-17 126h-101zM223 594l-37 -338h70l-31 338h-2zM168 758h-90l89 142h110l89 -142h-94l-51 86z" />
    <glyph glyph-name="Atilde" unicode="&#xc3;" horiz-adv-x="444" 
d="M156 0h-152l121 714h194l121 -714h-151l-17 126h-101zM223 594l-37 -338h70l-31 338h-2zM135 770h-62q2 43 26 79.5t64 36.5q29 0 69 -17t52 -17q13 0 20 11.5t7 28.5h62q-3 -48 -25 -82t-64 -34q-25 0 -65.5 17t-46.5 17q-19 0 -28 -12.5t-9 -27.5z" />
    <glyph glyph-name="Adieresis" unicode="&#xc4;" horiz-adv-x="444" 
d="M156 0h-152l121 714h194l121 -714h-151l-17 126h-101zM223 594l-37 -338h70l-31 338h-2zM92 776v108h94v-108h-94zM258 776v108h94v-108h-94z" />
    <glyph glyph-name="Aring" unicode="&#xc5;" horiz-adv-x="444" 
d="M156 0h-152l121 714h194l121 -714h-151l-17 126h-101zM223 594l-37 -338h70l-31 338h-2zM139 823q0 35 24.5 59t58.5 24t58.5 -24t24.5 -59t-24.5 -59t-58.5 -24t-58.5 24t-24.5 59zM189 823q0 -13 9.5 -23t23.5 -10t23.5 10t9.5 23t-9.5 23t-23.5 10t-23.5 -10t-9.5 -23
z" />
    <glyph glyph-name="AE" unicode="&#xc6;" horiz-adv-x="630" 
d="M213 255h83v353h-2zM154 0h-152l199 714h395v-130h-154v-146h147v-130h-147v-178h154v-130h-297v125h-114z" />
    <glyph glyph-name="Ccedilla" unicode="&#xc7;" 
d="M402 459h-146v107q0 15 -11 23.5t-27 8.5q-20 0 -29 -11t-9 -39v-382q0 -28 9 -39t29 -11q16 0 27 8.5t11 23.5v132h146v-126q0 -83 -36.5 -122.5t-119.5 -43.5l-32 -47q18 3 36 3q35 0 57.5 -21t22.5 -58q0 -39 -33 -62t-86 -23q-56 0 -96 19l16 39q35 -14 67 -14
q19 0 35.5 9.5t16.5 28.5q0 38 -45 38q-12 0 -37 -5l-18 17l47 75q-88 4 -125.5 43.5t-37.5 123.5v406q0 89 42.5 128.5t141.5 39.5t141.5 -39.5t42.5 -128.5v-101z" />
    <glyph glyph-name="Egrave" unicode="&#xc8;" horiz-adv-x="370" 
d="M44 0v714h300v-130h-154v-146h147v-130h-147v-178h154v-130h-300zM249 758h-74l-105 142h118z" />
    <glyph glyph-name="Eacute" unicode="&#xc9;" horiz-adv-x="370" 
d="M44 0v714h300v-130h-154v-146h147v-130h-147v-178h154v-130h-300zM209 758h-74l61 142h118z" />
    <glyph glyph-name="Ecircumflex" unicode="&#xca;" horiz-adv-x="370" 
d="M44 0v714h300v-130h-154v-146h147v-130h-147v-178h154v-130h-300zM138 758h-90l89 142h110l89 -142h-94l-51 86z" />
    <glyph glyph-name="Edieresis" unicode="&#xcb;" horiz-adv-x="370" 
d="M44 0v714h300v-130h-154v-146h147v-130h-147v-178h154v-130h-300zM62 776v108h94v-108h-94zM228 776v108h94v-108h-94z" />
    <glyph glyph-name="Igrave" unicode="&#xcc;" horiz-adv-x="241" 
d="M194 0h-146v714h146v-714zM178 758h-74l-105 142h118z" />
    <glyph glyph-name="Iacute" unicode="&#xcd;" horiz-adv-x="241" 
d="M194 0h-146v714h146v-714zM138 758h-74l61 142h118z" />
    <glyph glyph-name="Icircumflex" unicode="&#xce;" horiz-adv-x="241" 
d="M194 0h-146v714h146v-714zM67 758h-90l89 142h110l89 -142h-94l-51 86z" />
    <glyph glyph-name="Idieresis" unicode="&#xcf;" horiz-adv-x="241" 
d="M194 0h-146v714h146v-714zM-9 776v108h94v-108h-94zM157 776v108h94v-108h-94z" />
    <glyph glyph-name="Eth" unicode="&#xd0;" horiz-adv-x="444" 
d="M44 438v276h180q101 0 144.5 -35.5t43.5 -132.5v-378q0 -97 -43.5 -132.5t-144.5 -35.5h-180v308h-27v130h27zM190 584v-146h41v-130h-41v-178h34q23 0 32.5 13.5t9.5 48.5v330q0 35 -9.5 48.5t-32.5 13.5h-34z" />
    <glyph glyph-name="Ntilde" unicode="&#xd1;" horiz-adv-x="537" 
d="M355 211v503h138v-714h-183l-126 499h-2v-499h-138v714h185l124 -503h2zM182 770h-62q2 43 26 79.5t64 36.5q29 0 69 -17t52 -17q13 0 20 11.5t7 28.5h62q-3 -48 -25 -82t-64 -34q-25 0 -65.5 17t-46.5 17q-19 0 -28 -12.5t-9 -27.5z" />
    <glyph glyph-name="Ograve" unicode="&#xd2;" horiz-adv-x="444" 
d="M180 559v-404q0 -21 9.5 -30t32.5 -9t32.5 9t9.5 30v404q0 21 -9.5 30t-32.5 9t-32.5 -9t-9.5 -30zM34 154v406q0 97 43.5 132.5t144.5 35.5t144.5 -35.5t43.5 -132.5v-406q0 -97 -43.5 -132.5t-144.5 -35.5t-144.5 35.5t-43.5 132.5zM279 758h-74l-105 142h118z" />
    <glyph glyph-name="Oacute" unicode="&#xd3;" horiz-adv-x="444" 
d="M180 559v-404q0 -21 9.5 -30t32.5 -9t32.5 9t9.5 30v404q0 21 -9.5 30t-32.5 9t-32.5 -9t-9.5 -30zM34 154v406q0 97 43.5 132.5t144.5 35.5t144.5 -35.5t43.5 -132.5v-406q0 -97 -43.5 -132.5t-144.5 -35.5t-144.5 35.5t-43.5 132.5zM239 758h-74l61 142h118z" />
    <glyph glyph-name="Ocircumflex" unicode="&#xd4;" horiz-adv-x="444" 
d="M180 559v-404q0 -21 9.5 -30t32.5 -9t32.5 9t9.5 30v404q0 21 -9.5 30t-32.5 9t-32.5 -9t-9.5 -30zM34 154v406q0 97 43.5 132.5t144.5 35.5t144.5 -35.5t43.5 -132.5v-406q0 -97 -43.5 -132.5t-144.5 -35.5t-144.5 35.5t-43.5 132.5zM168 758h-90l89 142h110l89 -142
h-94l-51 86z" />
    <glyph glyph-name="Otilde" unicode="&#xd5;" horiz-adv-x="444" 
d="M180 559v-404q0 -21 9.5 -30t32.5 -9t32.5 9t9.5 30v404q0 21 -9.5 30t-32.5 9t-32.5 -9t-9.5 -30zM34 154v406q0 97 43.5 132.5t144.5 35.5t144.5 -35.5t43.5 -132.5v-406q0 -97 -43.5 -132.5t-144.5 -35.5t-144.5 35.5t-43.5 132.5zM135 770h-62q2 43 26 79.5t64 36.5
q29 0 69 -17t52 -17q13 0 20 11.5t7 28.5h62q-3 -48 -25 -82t-64 -34q-25 0 -65.5 17t-46.5 17q-19 0 -28 -12.5t-9 -27.5z" />
    <glyph glyph-name="Odieresis" unicode="&#xd6;" horiz-adv-x="444" 
d="M180 559v-404q0 -21 9.5 -30t32.5 -9t32.5 9t9.5 30v404q0 21 -9.5 30t-32.5 9t-32.5 -9t-9.5 -30zM34 154v406q0 97 43.5 132.5t144.5 35.5t144.5 -35.5t43.5 -132.5v-406q0 -97 -43.5 -132.5t-144.5 -35.5t-144.5 35.5t-43.5 132.5zM92 776v108h94v-108h-94zM258 776
v108h94v-108h-94z" />
    <glyph glyph-name="multiply" unicode="&#xd7;" horiz-adv-x="600" 
d="M300 182l-182 -182l-76 76l183 182l-183 182l76 76l182 -182l182 182l76 -76l-183 -182l183 -182l-76 -76z" />
    <glyph glyph-name="Oslash" unicode="&#xd8;" horiz-adv-x="444" 
d="M182 315l82 183v61q0 21 -9.5 30t-32.5 9t-32.5 -9t-9.5 -30v-244h2zM420 731l-31 -68q21 -35 21 -103v-406q0 -97 -43.5 -132.5t-144.5 -35.5q-90 0 -131 26l-26 -56l-41 18l33 73q-23 36 -23 107v406q0 97 43.5 132.5t144.5 35.5q94 0 134 -29l23 50zM262 390l-82 -183
v-52q0 -21 9.5 -30t32.5 -9t32.5 9t9.5 30v235h-2z" />
    <glyph glyph-name="Ugrave" unicode="&#xd9;" horiz-adv-x="444" 
d="M410 714v-560q0 -97 -43.5 -132.5t-144.5 -35.5t-144.5 35.5t-43.5 132.5v560h146v-538q0 -36 9 -48t33 -12t33 12t9 48v538h146zM279 758h-74l-105 142h118z" />
    <glyph glyph-name="Uacute" unicode="&#xda;" horiz-adv-x="444" 
d="M410 714v-560q0 -97 -43.5 -132.5t-144.5 -35.5t-144.5 35.5t-43.5 132.5v560h146v-538q0 -36 9 -48t33 -12t33 12t9 48v538h146zM239 758h-74l61 142h118z" />
    <glyph glyph-name="Ucircumflex" unicode="&#xdb;" horiz-adv-x="444" 
d="M410 714v-560q0 -97 -43.5 -132.5t-144.5 -35.5t-144.5 35.5t-43.5 132.5v560h146v-538q0 -36 9 -48t33 -12t33 12t9 48v538h146zM168 758h-90l89 142h110l89 -142h-94l-51 86z" />
    <glyph glyph-name="Udieresis" unicode="&#xdc;" horiz-adv-x="444" 
d="M410 714v-560q0 -97 -43.5 -132.5t-144.5 -35.5t-144.5 35.5t-43.5 132.5v560h146v-538q0 -36 9 -48t33 -12t33 12t9 48v538h146zM92 776v108h94v-108h-94zM258 776v108h94v-108h-94z" />
    <glyph glyph-name="Yacute" unicode="&#xdd;" horiz-adv-x="463" 
d="M157 714l74 -257h2l73 257h153l-155 -442v-272h-146v272l-154 442h153zM249 758h-74l61 142h118z" />
    <glyph glyph-name="Thorn" unicode="&#xde;" 
d="M190 143v-143h-146v714h146v-109h34q108 0 148 -34t40 -129v-136q0 -95 -40 -129t-148 -34h-34zM190 475v-202h22q33 0 43.5 18t10.5 83t-10.5 83t-43.5 18h-22z" />
    <glyph glyph-name="germandbls" unicode="&#xdf;" 
d="M178 0h-142v568q0 68 45.5 114t134.5 46q83 0 131.5 -33.5t48.5 -106.5q0 -112 -100 -124v-2q48 0 77 -28t29 -82v-221q0 -61 -25.5 -96t-71.5 -35h-83v126h17q21 0 21 34v204q0 34 -21 34h-17v122q25 0 34.5 10.5t9.5 35.5q0 46 -44 46t-44 -60v-552z" />
    <glyph glyph-name="agrave" unicode="&#xe0;" horiz-adv-x="407" 
d="M162 351h-124v49q0 62 43.5 96t123.5 34t123.5 -34t43.5 -96v-302q0 -41 16 -98h-137q-9 22 -9 56h-2q-27 -70 -102 -70q-61 0 -89.5 34.5t-28.5 113.5v30q0 50 16 82.5t40 45.5t52 22.5t52 14.5t40 19.5t16 39.5q0 16 -8 28t-24 12q-26 0 -34 -16.5t-8 -60.5zM230 131
v116q-6 -4 -23 -15t-20.5 -14.5t-12 -13.5t-10.5 -21.5t-2 -28.5v-13q0 -43 41 -43q10 0 18.5 8.5t8.5 24.5zM261 580h-74l-105 142h118z" />
    <glyph glyph-name="aacute" unicode="&#xe1;" horiz-adv-x="407" 
d="M162 351h-124v49q0 62 43.5 96t123.5 34t123.5 -34t43.5 -96v-302q0 -41 16 -98h-137q-9 22 -9 56h-2q-27 -70 -102 -70q-61 0 -89.5 34.5t-28.5 113.5v30q0 50 16 82.5t40 45.5t52 22.5t52 14.5t40 19.5t16 39.5q0 16 -8 28t-24 12q-26 0 -34 -16.5t-8 -60.5zM230 131
v116q-6 -4 -23 -15t-20.5 -14.5t-12 -13.5t-10.5 -21.5t-2 -28.5v-13q0 -43 41 -43q10 0 18.5 8.5t8.5 24.5zM221 580h-74l61 142h118z" />
    <glyph glyph-name="acircumflex" unicode="&#xe2;" horiz-adv-x="407" 
d="M162 351h-124v49q0 62 43.5 96t123.5 34t123.5 -34t43.5 -96v-302q0 -41 16 -98h-137q-9 22 -9 56h-2q-27 -70 -102 -70q-61 0 -89.5 34.5t-28.5 113.5v30q0 50 16 82.5t40 45.5t52 22.5t52 14.5t40 19.5t16 39.5q0 16 -8 28t-24 12q-26 0 -34 -16.5t-8 -60.5zM230 131
v116q-6 -4 -23 -15t-20.5 -14.5t-12 -13.5t-10.5 -21.5t-2 -28.5v-13q0 -43 41 -43q10 0 18.5 8.5t8.5 24.5zM150 580h-90l89 142h110l89 -142h-94l-51 86z" />
    <glyph glyph-name="atilde" unicode="&#xe3;" horiz-adv-x="407" 
d="M162 351h-124v49q0 62 43.5 96t123.5 34t123.5 -34t43.5 -96v-302q0 -41 16 -98h-137q-9 22 -9 56h-2q-27 -70 -102 -70q-61 0 -89.5 34.5t-28.5 113.5v30q0 50 16 82.5t40 45.5t52 22.5t52 14.5t40 19.5t16 39.5q0 16 -8 28t-24 12q-26 0 -34 -16.5t-8 -60.5zM230 131
v116q-6 -4 -23 -15t-20.5 -14.5t-12 -13.5t-10.5 -21.5t-2 -28.5v-13q0 -43 41 -43q10 0 18.5 8.5t8.5 24.5zM117 592h-62q2 43 26 79.5t64 36.5q29 0 69 -17t52 -17q13 0 20 11.5t7 28.5h62q-3 -48 -25 -82t-64 -34q-25 0 -65.5 17t-46.5 17q-19 0 -28 -12.5t-9 -27.5z" />
    <glyph glyph-name="adieresis" unicode="&#xe4;" horiz-adv-x="407" 
d="M162 351h-124v49q0 62 43.5 96t123.5 34t123.5 -34t43.5 -96v-302q0 -41 16 -98h-137q-9 22 -9 56h-2q-27 -70 -102 -70q-61 0 -89.5 34.5t-28.5 113.5v30q0 50 16 82.5t40 45.5t52 22.5t52 14.5t40 19.5t16 39.5q0 16 -8 28t-24 12q-26 0 -34 -16.5t-8 -60.5zM230 131
v116q-6 -4 -23 -15t-20.5 -14.5t-12 -13.5t-10.5 -21.5t-2 -28.5v-13q0 -43 41 -43q10 0 18.5 8.5t8.5 24.5zM74 598v108h94v-108h-94zM240 598v108h94v-108h-94z" />
    <glyph glyph-name="aring" unicode="&#xe5;" horiz-adv-x="407" 
d="M162 351h-124v49q0 62 43.5 96t123.5 34t123.5 -34t43.5 -96v-302q0 -41 16 -98h-137q-9 22 -9 56h-2q-27 -70 -102 -70q-61 0 -89.5 34.5t-28.5 113.5v30q0 50 16 82.5t40 45.5t52 22.5t52 14.5t40 19.5t16 39.5q0 16 -8 28t-24 12q-26 0 -34 -16.5t-8 -60.5zM230 131
v116q-6 -4 -23 -15t-20.5 -14.5t-12 -13.5t-10.5 -21.5t-2 -28.5v-13q0 -43 41 -43q10 0 18.5 8.5t8.5 24.5zM121 645q0 35 24.5 59t58.5 24t58.5 -24t24.5 -59t-24.5 -59t-58.5 -24t-58.5 24t-24.5 59zM171 645q0 -13 9.5 -23t23.5 -10t23.5 10t9.5 23t-9.5 23t-23.5 10
t-23.5 -10t-9.5 -23z" />
    <glyph glyph-name="ae" unicode="&#xe6;" horiz-adv-x="611" 
d="M376 322h76v51q0 45 -38 45t-38 -45v-51zM582 224h-206v-80q0 -46 38 -46t38 46v28h130v-46q0 -140 -163 -140q-40 0 -65 3.5t-53.5 22t-45.5 54.5h-2q-7 -30 -39.5 -55t-81.5 -25q-55 0 -82.5 34.5t-27.5 113.5v30q0 59 22.5 93.5t54 46.5t63.5 19t54.5 21.5t22.5 43.5
q0 16 -8.5 28t-24.5 12q-26 0 -34 -16.5t-8 -59.5h-124v48q0 62 38.5 96t113.5 34q70 0 113 -38q41 38 112 38q81 0 123 -38t42 -106v-162zM234 131v114q-9 -6 -28 -18t-24.5 -16.5t-11.5 -15.5t-6 -26v-26q0 -47 39 -47q12 0 21.5 11t9.5 24z" />
    <glyph glyph-name="ccedilla" unicode="&#xe7;" horiz-adv-x="389" 
d="M235 206h130v-77q0 -128 -137 -141l-32 -47q18 3 36 3q35 0 57.5 -21t22.5 -58q0 -39 -33 -62t-86 -23q-56 0 -96 19l16 39q35 -14 67 -14q19 0 35.5 9.5t16.5 28.5q0 38 -45 38q-12 0 -37 -5l-18 17l46 75q-75 3 -114 39.5t-39 102.5v258q0 69 43 106t126 37
q171 0 171 -143v-67h-130v58q0 40 -34 40t-34 -40v-240q0 -40 34 -40t34 40v68z" />
    <glyph glyph-name="egrave" unicode="&#xe8;" horiz-adv-x="407" 
d="M378 224h-206v-80q0 -46 38 -46t38 46v28h130v-46q0 -140 -174 -140t-174 140v231q0 91 39.5 132t134.5 41t134.5 -41t39.5 -132v-133zM172 322h76v47q0 49 -38 49t-38 -49v-47zM268 580h-74l-105 142h118z" />
    <glyph glyph-name="eacute" unicode="&#xe9;" horiz-adv-x="407" 
d="M378 224h-206v-80q0 -46 38 -46t38 46v28h130v-46q0 -140 -174 -140t-174 140v231q0 91 39.5 132t134.5 41t134.5 -41t39.5 -132v-133zM172 322h76v47q0 49 -38 49t-38 -49v-47zM228 580h-74l61 142h118z" />
    <glyph glyph-name="ecircumflex" unicode="&#xea;" horiz-adv-x="407" 
d="M378 224h-206v-80q0 -46 38 -46t38 46v28h130v-46q0 -140 -174 -140t-174 140v231q0 91 39.5 132t134.5 41t134.5 -41t39.5 -132v-133zM172 322h76v47q0 49 -38 49t-38 -49v-47zM157 580h-90l89 142h110l89 -142h-94l-51 86z" />
    <glyph glyph-name="edieresis" unicode="&#xeb;" horiz-adv-x="407" 
d="M378 224h-206v-80q0 -46 38 -46t38 46v28h130v-46q0 -140 -174 -140t-174 140v231q0 91 39.5 132t134.5 41t134.5 -41t39.5 -132v-133zM172 322h76v47q0 49 -38 49t-38 -49v-47zM81 598v108h94v-108h-94zM247 598v108h94v-108h-94z" />
    <glyph glyph-name="igrave" unicode="&#xec;" horiz-adv-x="222" 
d="M40 516h142v-516h-142v516zM168 580h-74l-105 142h118z" />
    <glyph glyph-name="iacute" unicode="&#xed;" horiz-adv-x="222" 
d="M40 516h142v-516h-142v516zM128 580h-74l61 142h118z" />
    <glyph glyph-name="icircumflex" unicode="&#xee;" horiz-adv-x="222" 
d="M40 516h142v-516h-142v516zM57 580h-90l89 142h110l89 -142h-94l-51 86z" />
    <glyph glyph-name="idieresis" unicode="&#xef;" horiz-adv-x="222" 
d="M40 516h142v-516h-142v516zM-19 598v108h94v-108h-94zM147 598v108h94v-108h-94z" />
    <glyph glyph-name="eth" unicode="&#xf0;" horiz-adv-x="407" 
d="M171 374v-232q0 -24 7.5 -34t25.5 -10t25.5 10t7.5 34v232q0 24 -7.5 34t-25.5 10t-25.5 -10t-7.5 -34zM90 536l-44 66l78 33q-27 37 -44 57l100 22q11 -10 40 -40l87 36l44 -66l-77 -32q105 -114 105 -237v-234q0 -79 -47.5 -117t-127.5 -38t-127.5 38t-47.5 117v234
q0 78 45 115.5t120 39.5q-2 3 -10.5 17.5t-14.5 21.5z" />
    <glyph glyph-name="ntilde" unicode="&#xf1;" 
d="M37 0v516h136v-60h2q13 31 42 52.5t65 21.5q49 0 78 -30.5t29 -93.5v-406h-142v368q0 50 -32 50q-19 0 -27.5 -13t-8.5 -47v-358h-142zM126 592h-62q2 43 26 79.5t64 36.5q29 0 69 -17t52 -17q13 0 20 11.5t7 28.5h62q-3 -48 -25 -82t-64 -34q-25 0 -65.5 17t-46.5 17
q-19 0 -28 -12.5t-9 -27.5z" />
    <glyph glyph-name="ograve" unicode="&#xf2;" horiz-adv-x="407" 
d="M171 374v-232q0 -24 7.5 -34t25.5 -10t25.5 10t7.5 34v232q0 24 -7.5 34t-25.5 10t-25.5 -10t-7.5 -34zM29 141v234q0 79 47.5 117t127.5 38t127.5 -38t47.5 -117v-234q0 -79 -47.5 -117t-127.5 -38t-127.5 38t-47.5 117zM261 580h-74l-105 142h118z" />
    <glyph glyph-name="oacute" unicode="&#xf3;" horiz-adv-x="407" 
d="M171 374v-232q0 -24 7.5 -34t25.5 -10t25.5 10t7.5 34v232q0 24 -7.5 34t-25.5 10t-25.5 -10t-7.5 -34zM29 141v234q0 79 47.5 117t127.5 38t127.5 -38t47.5 -117v-234q0 -79 -47.5 -117t-127.5 -38t-127.5 38t-47.5 117zM221 580h-74l61 142h118z" />
    <glyph glyph-name="ocircumflex" unicode="&#xf4;" horiz-adv-x="407" 
d="M171 374v-232q0 -24 7.5 -34t25.5 -10t25.5 10t7.5 34v232q0 24 -7.5 34t-25.5 10t-25.5 -10t-7.5 -34zM29 141v234q0 79 47.5 117t127.5 38t127.5 -38t47.5 -117v-234q0 -79 -47.5 -117t-127.5 -38t-127.5 38t-47.5 117zM150 580h-90l89 142h110l89 -142h-94l-51 86z
" />
    <glyph glyph-name="otilde" unicode="&#xf5;" horiz-adv-x="407" 
d="M171 374v-232q0 -24 7.5 -34t25.5 -10t25.5 10t7.5 34v232q0 24 -7.5 34t-25.5 10t-25.5 -10t-7.5 -34zM29 141v234q0 79 47.5 117t127.5 38t127.5 -38t47.5 -117v-234q0 -79 -47.5 -117t-127.5 -38t-127.5 38t-47.5 117zM117 592h-62q2 43 26 79.5t64 36.5q29 0 69 -17
t52 -17q13 0 20 11.5t7 28.5h62q-3 -48 -25 -82t-64 -34q-25 0 -65.5 17t-46.5 17q-19 0 -28 -12.5t-9 -27.5z" />
    <glyph glyph-name="odieresis" unicode="&#xf6;" horiz-adv-x="407" 
d="M171 374v-232q0 -24 7.5 -34t25.5 -10t25.5 10t7.5 34v232q0 24 -7.5 34t-25.5 10t-25.5 -10t-7.5 -34zM29 141v234q0 79 47.5 117t127.5 38t127.5 -38t47.5 -117v-234q0 -79 -47.5 -117t-127.5 -38t-127.5 38t-47.5 117zM74 598v108h94v-108h-94zM240 598v108h94v-108
h-94z" />
    <glyph glyph-name="divide" unicode="&#xf7;" horiz-adv-x="600" 
d="M558 202h-516v112h516v-112zM211 465q0 37 26 63t62 26q37 0 63.5 -26t26.5 -63t-26 -63t-64 -26q-36 0 -62 26t-26 63zM211 51q0 37 26 63t62 26q37 0 63.5 -26t26.5 -63t-26 -63t-64 -26q-36 0 -62 26t-26 63z" />
    <glyph glyph-name="oslash" unicode="&#xf8;" horiz-adv-x="407" 
d="M173 242l64 124v8q0 24 -7.5 34t-25.5 10t-25.5 -10t-7.5 -34v-132h2zM235 277l-64 -124v-11q0 -24 7.5 -34t25.5 -10t25.5 10t7.5 34v135h-2zM340 559l36 -22l-31 -58q34 -37 34 -104v-234q0 -79 -47.5 -117t-127.5 -38q-65 0 -108 25l-30 -55l-36 22l32 60
q-33 38 -33 103v234q0 79 47.5 117t127.5 38q67 0 108 -24z" />
    <glyph glyph-name="ugrave" unicode="&#xf9;" 
d="M389 516v-516h-136v60h-2q-13 -31 -42 -52.5t-65 -21.5q-49 0 -78 30.5t-29 93.5v406h142v-368q0 -50 32 -50q19 0 27.5 13t8.5 47v358h142zM270 580h-74l-105 142h118z" />
    <glyph glyph-name="uacute" unicode="&#xfa;" 
d="M389 516v-516h-136v60h-2q-13 -31 -42 -52.5t-65 -21.5q-49 0 -78 30.5t-29 93.5v406h142v-368q0 -50 32 -50q19 0 27.5 13t8.5 47v358h142zM230 580h-74l61 142h118z" />
    <glyph glyph-name="ucircumflex" unicode="&#xfb;" 
d="M389 516v-516h-136v60h-2q-13 -31 -42 -52.5t-65 -21.5q-49 0 -78 30.5t-29 93.5v406h142v-368q0 -50 32 -50q19 0 27.5 13t8.5 47v358h142zM159 580h-90l89 142h110l89 -142h-94l-51 86z" />
    <glyph glyph-name="udieresis" unicode="&#xfc;" 
d="M389 516v-516h-136v60h-2q-13 -31 -42 -52.5t-65 -21.5q-49 0 -78 30.5t-29 93.5v406h142v-368q0 -50 32 -50q19 0 27.5 13t8.5 47v358h142zM83 598v108h94v-108h-94zM249 598v108h94v-108h-94z" />
    <glyph glyph-name="yacute" unicode="&#xfd;" horiz-adv-x="407" 
d="M63 -180v126h53q31 0 31 22q0 6 -6 24l-139 524h149l61 -377h2l41 377h150l-134 -593q-12 -54 -38.5 -78.5t-78.5 -24.5h-91zM221 580h-74l61 142h118z" />
    <glyph glyph-name="thorn" unicode="&#xfe;" 
d="M173 714v-267h2q10 37 40 60t71 23q46 0 74.5 -30.5t28.5 -82.5v-318q0 -52 -28.5 -82.5t-74.5 -30.5q-42 0 -69.5 19.5t-35.5 48.5h-2v-234h-142v894h136zM247 142v232q0 44 -30 44q-15 0 -26.5 -11.5t-11.5 -32.5v-232q0 -21 11.5 -32.5t26.5 -11.5q30 0 30 44z" />
    <glyph glyph-name="ydieresis" unicode="&#xff;" horiz-adv-x="407" 
d="M63 -180v126h53q31 0 31 22q0 6 -6 24l-139 524h149l61 -377h2l41 377h150l-134 -593q-12 -54 -38.5 -78.5t-78.5 -24.5h-91zM74 598v108h94v-108h-94zM240 598v108h94v-108h-94z" />
    <glyph glyph-name="dotlessi" unicode="&#x131;" horiz-adv-x="222" 
d="M40 516h142v-516h-142v516z" />
    <glyph glyph-name="Lslash" unicode="&#x141;" horiz-adv-x="352" 
d="M190 350v-220h154v-130h-300v279l-49 -24v136l49 24v299h146v-228l72 36v-136z" />
    <glyph glyph-name="lslash" unicode="&#x142;" horiz-adv-x="222" 
d="M40 714h142v-231l40 15v-114l-40 -15v-369h-142v314l-40 -16v114l40 16v286z" />
    <glyph glyph-name="OE" unicode="&#x152;" horiz-adv-x="593" 
d="M180 559v-404q0 -21 9.5 -30t32.5 -9q44 0 44 39v404q0 39 -44 39q-23 0 -32.5 -9t-9.5 -30zM412 308v-178h157v-130h-247q-4 0 -14.5 -3.5t-32.5 -7t-53 -3.5q-101 0 -144.5 35.5t-43.5 132.5v406q0 97 43.5 132.5t144.5 35.5q38 0 71 -7q26 -7 29 -7h247v-130h-157
v-146h150v-130h-150z" />
    <glyph glyph-name="oe" unicode="&#x153;" horiz-adv-x="630" 
d="M181 374v-232q0 -24 7.5 -34t25.5 -10q36 0 36 44v232q0 44 -36 44q-18 0 -25.5 -10t-7.5 -34zM598 224h-206v-80q0 -46 38 -46t38 46v28h130v-46q0 -140 -164 -140q-41 0 -65 6t-45 26q-36 -32 -114 -32t-124.5 38t-46.5 117v234q0 71 41 113t127 42q31 0 45.5 -1
t33.5 -8t36 -21q23 19 45 24.5t65 5.5q81 0 123.5 -37t42.5 -109v-160zM392 322h76v47q0 49 -38 49t-38 -49v-47z" />
    <glyph glyph-name="Scaron" unicode="&#x160;" horiz-adv-x="407" 
d="M388 499h-142v40q0 59 -42 59q-22 0 -32 -13.5t-10 -45.5q0 -29 17 -54t42.5 -42.5t55.5 -42t55.5 -50.5t42.5 -70t17 -99q0 -111 -40.5 -153t-148.5 -42q-102 0 -144.5 37.5t-42.5 134.5v67h146v-50q0 -59 42 -59q22 0 32 13.5t10 45.5q0 30 -13 54.5t-33 42.5t-44.5 36
t-49 39t-45 47t-33 65t-12.5 87q0 98 42 140t146 42q95 0 139.5 -40t44.5 -133v-56zM60 900h90l53 -86l51 86h94l-89 -142h-110z" />
    <glyph glyph-name="scaron" unicode="&#x161;" horiz-adv-x="389" 
d="M356 352h-130v32q0 15 -10 24.5t-25 9.5q-33 0 -33 -31q0 -23 21.5 -40.5t52.5 -31t62 -31t52.5 -49.5t21.5 -77q4 -86 -38.5 -129t-134.5 -43q-173 0 -173 152v40h136v-22q0 -58 37 -58q31 0 31 41q0 24 -15 41t-38 26.5t-49 23.5t-49 30.5t-38 50t-15 79.5
q0 65 43.5 102.5t129.5 37.5q161 0 161 -130v-48zM51 722h90l53 -86l51 86h94l-89 -142h-110z" />
    <glyph glyph-name="Ydieresis" unicode="&#x178;" horiz-adv-x="463" 
d="M157 714l74 -257h2l73 257h153l-155 -442v-272h-146v272l-154 442h153zM102 776v108h94v-108h-94zM268 776v108h94v-108h-94z" />
    <glyph glyph-name="Zcaron" unicode="&#x17d;" horiz-adv-x="389" 
d="M379 0h-357v130l175 454h-170v130h335v-130l-182 -454h199v-130zM51 900h90l53 -86l51 86h94l-89 -142h-110z" />
    <glyph glyph-name="zcaron" unicode="&#x17e;" horiz-adv-x="333" 
d="M12 400v116h306v-116l-144 -284h148v-116h-310v116l144 284h-144zM23 722h90l53 -86l51 86h94l-89 -142h-110z" />
    <glyph glyph-name="florin" unicode="&#x192;" 
d="M-4 -180l13 112h33q25 0 34.5 11.5t13.5 46.5l39 340h-76l8 56h75l21 192q7 59 46.5 97.5t95.5 38.5h83l-13 -112h-33q-24 0 -34 -12t-14 -46l-17 -158h74l-8 -56h-73l-44 -376q-7 -58 -47 -96t-96 -38h-81z" />
    <glyph glyph-name="circumflex" unicode="&#x2c6;" horiz-adv-x="222" 
d="M57 580h-90l89 142h110l89 -142h-94l-51 86z" />
    <glyph glyph-name="caron" unicode="&#x2c7;" horiz-adv-x="222" 
d="M-33 722h90l53 -86l51 86h94l-89 -142h-110z" />
    <glyph glyph-name="uni02C9" unicode="&#x2c9;" horiz-adv-x="222" 
d="M-28 618v64h278v-64h-278z" />
    <glyph glyph-name="breve" unicode="&#x2d8;" horiz-adv-x="222" 
d="M-22 714h58q9 -36 26 -51q18 -15 48 -15q59 0 74 66h58q-4 -59 -38.5 -95.5t-93.5 -36.5t-93.5 36.5t-38.5 95.5z" />
    <glyph glyph-name="dotaccent" unicode="&#x2d9;" horiz-adv-x="222" 
d="M64 598v108h94v-108h-94z" />
    <glyph glyph-name="ring" unicode="&#x2da;" horiz-adv-x="222" 
d="M28 645q0 35 24.5 59t58.5 24t58.5 -24t24.5 -59t-24.5 -59t-58.5 -24t-58.5 24t-24.5 59zM78 645q0 -13 10 -23t23 -10t23 10t10 23t-10 23t-23 10t-23 -10t-10 -23z" />
    <glyph glyph-name="ogonek" unicode="&#x2db;" horiz-adv-x="222" 
d="M265 -115l22 -46q-96 -59 -160 -59q-47 0 -72.5 23t-25.5 63q0 32 13.5 57t35 40.5t50.5 26.5t56.5 17.5t56.5 12.5q8 1 12 2v-18q-29 -9 -57 -22t-57.5 -39.5t-29.5 -55.5q0 -24 12.5 -34.5t42.5 -10.5q34 0 101 43z" />
    <glyph glyph-name="tilde" unicode="&#x2dc;" horiz-adv-x="222" 
d="M24 592h-62q2 43 26 79.5t64 36.5q29 0 69 -17t52 -17q13 0 20 11.5t7 28.5h62q-3 -48 -25 -82t-64 -34q-25 0 -65.5 17t-46.5 17q-19 0 -28 -12.5t-9 -27.5z" />
    <glyph glyph-name="hungarumlaut" unicode="&#x2dd;" horiz-adv-x="222" 
d="M-27 580l45 142h118l-89 -142h-74zM116 580l61 142h118l-105 -142h-74z" />
    <glyph glyph-name="uni03A9" unicode="&#x3a9;" horiz-adv-x="519" 
d="M116 112v3q-83 120 -83 273q0 129 63.5 221t165.5 92q56 0 100 -29t69 -75t38 -96.5t13 -100.5q0 -82 -24.5 -159t-58.5 -126v-3h96v-112h-205v80q26 26 44.5 99.5t18.5 186.5q0 96 -23 156t-70 60t-73 -61t-26 -161q0 -104 19.5 -179t45.5 -101v-80h-206v112h96z" />
    <glyph glyph-name="uni03BC" unicode="&#x3bc;" 
d="M389 516v-516h-136v68h-2q-19 -61 -72 -76v-172h-142v696h142v-374q0 -44 31 -44q15 0 26 11.5t11 32.5v374h142z" />
    <glyph glyph-name="pi" unicode="&#x3c0;" horiz-adv-x="487" 
d="M470 402h-50v-271q0 -78 10 -131h-121q-15 38 -15 131v271h-86q-11 -242 -49 -402h-121q20 92 32.5 208.5t13.5 193.5q-41 0 -67 -7l-13 93q40 34 139 34h335z" />
    <glyph glyph-name="uni2010" unicode="&#x2010;" horiz-adv-x="315" 
d="M273 198h-231v120h231v-120z" />
    <glyph glyph-name="endash" unicode="&#x2013;" horiz-adv-x="500" 
d="M0 202v112h500v-112h-500z" />
    <glyph glyph-name="emdash" unicode="&#x2014;" horiz-adv-x="1000" 
d="M1000 202h-1000v112h1000v-112z" />
    <glyph glyph-name="quoteleft" unicode="&#x2018;" horiz-adv-x="213" 
d="M172 454h-130v130l67 130h73l-60 -130h50v-130z" />
    <glyph glyph-name="quoteright" unicode="&#x2019;" horiz-adv-x="213" 
d="M41 714h130v-130l-67 -130h-73l60 130h-50v130z" />
    <glyph glyph-name="quotesinglbase" unicode="&#x201a;" horiz-adv-x="241" 
d="M56 130h130v-130l-67 -130h-73l60 130h-50v130z" />
    <glyph glyph-name="quotedblleft" unicode="&#x201c;" horiz-adv-x="407" 
d="M348 454h-130v130l67 130h73l-60 -130h50v-130zM172 454h-130v130l67 130h73l-60 -130h50v-130z" />
    <glyph glyph-name="quotedblright" unicode="&#x201d;" horiz-adv-x="407" 
d="M59 714h130v-130l-67 -130h-73l60 130h-50v130zM235 714h130v-130l-67 -130h-73l60 130h-50v130z" />
    <glyph glyph-name="quotedblbase" unicode="&#x201e;" horiz-adv-x="407" 
d="M59 130h130v-130l-67 -130h-73l60 130h-50v130zM235 130h130v-130l-67 -130h-73l60 130h-50v130z" />
    <glyph glyph-name="dagger" unicode="&#x2020;" 
d="M157 508v188h112v-188h135v-98h-135v-410h-112v410h-135v98h135z" />
    <glyph glyph-name="daggerdbl" unicode="&#x2021;" 
d="M22 550h133v146h112v-146h137v-94h-137v-220h137v-94h-137v-142h-112v142h-133v94h133v220h-133v94z" />
    <glyph glyph-name="bullet" unicode="&#x2022;" horiz-adv-x="500" 
d="M71 357q-1 73 52 126t127 53t127 -53t52 -126q1 -73 -52 -126t-127 -53t-127 53t-52 126z" />
    <glyph glyph-name="ellipsis" unicode="&#x2026;" horiz-adv-x="1000" 
d="M102 130h130v-130h-130v130zM435 130h130v-130h-130v130zM768 130h130v-130h-130v130z" />
    <glyph glyph-name="perthousand" unicode="&#x2030;" horiz-adv-x="889" 
d="M720 221v-129q0 -10 8 -18.5t22 -8.5t22 8t8 19v129q0 10 -8 18t-22 8q-13 0 -21.5 -8t-8.5 -18zM508 706h68l-468 -716h-68zM118 604v-128q0 -10 8 -18.5t22 -8.5t22 8t8 19v128q0 11 -8 19t-22 8t-22 -8.5t-8 -18.5zM866 228v-144q0 -43 -25 -68.5t-61 -25.5h-60
q-36 0 -61 25.5t-25 68.5v144q0 44 25 69t61 25h60q36 0 61 -25t25 -69zM264 612v-144q0 -44 -25 -69t-61 -25h-60q-36 0 -61 25t-25 69v144q0 44 25 69t61 25h60q36 0 61 -25t25 -69zM590 228v-144q0 -43 -25 -68.5t-61 -25.5h-60q-36 0 -61 25.5t-25 68.5v144q0 44 25 69
t61 25h60q36 0 61 -25t25 -69zM444 221v-129q0 -10 8 -18.5t22 -8.5t22 8t8 19v129q0 10 -8 18t-22 8q-13 0 -21.5 -8t-8.5 -18z" />
    <glyph glyph-name="guilsinglleft" unicode="&#x2039;" horiz-adv-x="241" 
d="M20 258l97 125h104l-97 -125l97 -125h-104z" />
    <glyph glyph-name="guilsinglright" unicode="&#x203a;" horiz-adv-x="241" 
d="M124 383l97 -125l-97 -125h-104l97 125l-97 125h104z" />
    <glyph glyph-name="fraction" unicode="&#x2044;" horiz-adv-x="167" 
d="M258 706h76l-425 -716h-76z" />
    <glyph glyph-name="Euro" unicode="&#x20ac;" 
d="M391 679v-120q-25 29 -84 29q-102 0 -102 -120h163l-25 -92h-138v-57h121l-26 -91h-95q0 -65 28.5 -93.5t73.5 -28.5q57 0 84 27v-120q-10 -8 -57.5 -15t-92.5 -7q-170 0 -170 150v87h-56l25 91h31v57h-56l25 92h31v87q0 79 45.5 114.5t144.5 35.5q39 0 78.5 -8.5
t51.5 -17.5z" />
    <glyph glyph-name="afii61289" unicode="&#x2113;" horiz-adv-x="409" 
d="M354 177l46 -52q-55 -132 -164 -132q-79 0 -115.5 45.5t-38.5 114.5v12q-5 -5 -19.5 -18t-21.5 -19l-28 70q53 51 68 69v255q0 113 44.5 176t111.5 63q56 0 83 -47.5t27 -129.5q0 -150 -142 -325v-63q0 -98 60 -98q44 0 89 79zM205 498v-113q75 118 75 211q0 35 -8 50.5
t-28 15.5q-39 0 -39 -164z" />
    <glyph glyph-name="trademark" unicode="&#x2122;" horiz-adv-x="1000" 
d="M616 714l94 -250l93 250h153v-412h-106v282h-2l-98 -282h-81l-98 282h-2v-282h-106v412h153zM385 714v-86h-115v-326h-112v326h-114v86h341z" />
    <glyph glyph-name="Omega" unicode="&#x2126;" horiz-adv-x="519" 
d="M116 112v3q-83 120 -83 273q0 129 63.5 221t165.5 92q56 0 100 -29t69 -75t38 -96.5t13 -100.5q0 -82 -24.5 -159t-58.5 -126v-3h96v-112h-205v80q26 26 44.5 99.5t18.5 186.5q0 96 -23 156t-70 60t-73 -61t-26 -161q0 -104 19.5 -179t45.5 -101v-80h-206v112h96z" />
    <glyph glyph-name="estimated" unicode="&#x212e;" horiz-adv-x="863" 
d="M829 338h-644q-5 0 -5 -4v-195q0 -12 8 -22q103 -106 244 -106q75 0 141.5 31.5t114.5 86.5h57q-54 -64 -137 -101t-177 -37q-165 0 -281.5 104.5t-116.5 252.5t116.5 253t281.5 105t281.5 -105t116.5 -253v-10zM683 363v196q0 12 -10 24q-103 101 -241 101
q-140 0 -243 -105q-9 -9 -9 -24v-192q0 -6 5 -6h493q5 0 5 6z" />
    <glyph glyph-name="partialdiff" unicode="&#x2202;" horiz-adv-x="471" 
d="M88 625l-31 108q60 53 147 53q94 0 159 -93.5t65 -277.5q0 -203 -58.5 -311t-168.5 -108q-78 0 -123 70t-45 162q0 123 51 194t124 71q34 0 59 -17t36 -36h1q1 5 1 28q0 76 -32.5 140t-86.5 64q-51 0 -98 -47zM213 113h1q33 0 54.5 64.5t27.5 145.5q-5 22 -22.5 40
t-42.5 18q-33 0 -53 -49t-20 -114q0 -45 14.5 -75t40.5 -30z" />
    <glyph glyph-name="uni2206" unicode="&#x2206;" horiz-adv-x="515" 
d="M22 0v79l166 623h149l155 -620v-82h-470zM148 110h216l-63 236q-5 28 -21 95t-20 89h-2q-3 -20 -18.5 -80.5t-21.5 -90.5z" />
    <glyph glyph-name="product" unicode="&#x220f;" horiz-adv-x="588" 
d="M563 564h-72v-659h-128v659h-139v-659h-128v659h-72v127h539v-127z" />
    <glyph glyph-name="summation" unicode="&#x2211;" horiz-adv-x="440" 
d="M424 -96h-402v93l179 305l-176 291v98h387v-113h-224v-3l154 -245l-177 -292v-3h259v-131z" />
    <glyph glyph-name="minus" unicode="&#x2212;" horiz-adv-x="600" 
d="M558 202h-516v112h516v-112z" />
    <glyph glyph-name="uni2215" unicode="&#x2215;" horiz-adv-x="167" 
d="M258 706h76l-425 -716h-76z" />
    <glyph glyph-name="uni2219" unicode="&#x2219;" horiz-adv-x="213" 
d="M35 258q0 29 21 50t50 21t50 -21t21 -50t-21 -50t-50 -21t-50 21t-21 50z" />
    <glyph glyph-name="radical" unicode="&#x221a;" horiz-adv-x="490" 
d="M491 837l-175 -965h-100l-108 421l-61 -25l-18 79l157 63l63 -268q2 -14 6 -36t6.5 -38t3.5 -26l1 -1q0 2 5 43t9 67l126 686h85z" />
    <glyph glyph-name="infinity" unicode="&#x221e;" horiz-adv-x="685" 
d="M644 285v-1q0 -73 -43 -117t-102 -44q-42 0 -78 20.5t-76 77.5q-37 -49 -74.5 -73.5t-87.5 -24.5q-58 0 -100 43.5t-42 112.5q0 71 42.5 115t107.5 44q85 0 155 -95q16 19 21.5 25t23.5 23.5t31.5 25t35.5 14.5t45 7q60 -1 100.5 -43t40.5 -110zM192 194h1q31 0 56 20
t57 61q-42 59 -61 74q-24 19 -55 19q-37 0 -57 -25t-20 -65q0 -35 23 -59.5t56 -24.5zM497 368h-1q-9 0 -19 -2.5t-17 -5.5t-16.5 -10.5t-14 -11.5t-14 -14.5t-12 -14t-11.5 -15t-10 -12.5q39 -52 62.5 -70t56.5 -18q32 0 51.5 27t19.5 57q0 38 -20.5 64t-54.5 26z" />
    <glyph glyph-name="integral" unicode="&#x222b;" horiz-adv-x="370" 
d="M335 849l-11 -97q-16 7 -27 7q-24 0 -39 -25q-20 -29 -20 -164q0 -79 6 -226t6 -242q0 -140 -28 -200q-33 -76 -124 -76q-43 0 -67 14l15 100q21 -8 33 -8q21 0 33 18q16 28 16 147q0 96 -5.5 247.5t-5.5 237.5q0 90 12 142t40 86q40 48 112 48q34 0 54 -9z" />
    <glyph glyph-name="approxequal" unicode="&#x2248;" horiz-adv-x="440" 
d="M365 438l44 -37q-17 -44 -47 -72t-65 -28q-41 0 -88 34q-42 31 -67 31q-6 0 -11 -1t-10 -4t-8.5 -5t-8 -7.5t-6.5 -7.5t-6.5 -9.5t-6 -9t-6 -10.5t-5.5 -10l-44 37q17 44 48.5 71.5t70.5 27.5q10 0 19.5 -2t16 -3.5t15.5 -6t12.5 -6.5t12 -7t9.5 -6q4 -3 12.5 -8.5t12 -8
t10 -6.5t11 -5.5t9.5 -3t10 -1.5q15 0 27.5 10.5t19 20.5t19.5 33zM365 266l44 -37q-16 -44 -46.5 -72t-66.5 -28q-38 0 -87 34q-18 13 -24.5 17.5t-18.5 9.5t-24 5q-8 0 -16 -3t-13 -6.5t-11.5 -12t-9 -12.5t-9.5 -16t-9 -15l-44 37q17 44 48.5 71.5t69.5 27.5q37 0 85 -31
q5 -3 18 -12t18.5 -11.5t14 -6t15.5 -3.5q15 0 27.5 10.5t19 20.5t19.5 33z" />
    <glyph glyph-name="notequal" unicode="&#x2260;" horiz-adv-x="440" 
d="M331 488l-30 -73h99v-77h-123l-46 -117h169v-76h-194l-37 -94l-57 20l29 74h-102v76h127l46 117h-173v77h197l37 93z" />
    <glyph glyph-name="lessequal" unicode="&#x2264;" horiz-adv-x="440" 
d="M397 96l-353 203v83l353 204v-91l-286 -153v-2l286 -153v-91zM403 -15h-362v77h362v-77z" />
    <glyph glyph-name="greaterequal" unicode="&#x2265;" horiz-adv-x="440" 
d="M47 586l353 -204v-83l-353 -203v91l286 153v2l-286 153v91zM403 -15h-361v77h361v-77z" />
    <glyph glyph-name="lozenge" unicode="&#x25ca;" horiz-adv-x="489" 
d="M448 345l-155 -391h-106l-145 391l154 392h107zM334 342l-68 204q-11 35 -16 74h-4q-7 -39 -17 -74l-73 -198l70 -210q4 -14 14 -69h5q9 53 15 66z" />
    <glyph glyph-name="fi" unicode="&#xfb01;" horiz-adv-x="481" 
d="M302 515h142v-515h-142v515zM438 578h-130v136h130v-136zM269 400h-72v-400h-142v400h-49v116h49v65q0 71 32.5 102t100.5 31h81v-116h-33q-20 0 -29.5 -8.5t-9.5 -29.5v-44h72v-116z" />
    <glyph glyph-name="fl" unicode="&#xfb02;" horiz-adv-x="481" 
d="M302 714h142v-714h-142v714zM269 400h-72v-400h-142v400h-49v116h49v65q0 71 32.5 102t100.5 31h81v-116h-30q-22 0 -32 -8.5t-10 -29.5v-44h72v-116z" />
    <glyph glyph-name="a.superior" horiz-adv-x="244" 
d="M96 599h-80v29q0 37 28 57.5t80 20.5t80.5 -20.5t28.5 -57.5v-181q0 -21 10 -59h-89q-6 15 -6 34h-2q-16 -42 -65 -42q-40 0 -58.5 20.5t-18.5 67.5v18q0 35 14.5 56t35 28.5t41 11.5t35 13t14.5 26q0 24 -20 24q-17 0 -22.5 -10t-5.5 -36zM141 467v69q-5 -3 -13 -8
t-11.5 -7t-8.5 -6.5t-7 -8.5t-3.5 -10.5t-1.5 -15.5v-7q0 -26 27 -26q6 0 12 5t6 15z" />
    <glyph glyph-name="o.superior" horiz-adv-x="244" 
d="M100 613v-140q0 -27 22 -27q21 0 21 27v140q0 27 -21 27q-22 0 -22 -27zM8 473v140q0 93 114 93q113 0 113 -93v-140q0 -93 -113 -93q-114 0 -114 93z" />
    <glyph glyph-name="one.superior" horiz-adv-x="255" 
d="M90 282v340h-65v52l65 26h92v-418h-92z" />
    <glyph glyph-name="two.superior" horiz-adv-x="255" 
d="M245 282h-235v70q0 29 35 78t70.5 95.5t35.5 69.5q0 21 -5.5 28.5t-19.5 7.5q-24 0 -24 -30v-27h-92v31q0 52 25.5 76.5t90.5 24.5q66 0 91.5 -23.5t25.5 -83.5q0 -34 -13.5 -65t-31 -52t-44 -55.5t-44.5 -67.5h135v-77z" />
    <glyph glyph-name="three.superior" horiz-adv-x="255" 
d="M12 408h88v-19q0 -22 5.5 -30t20.5 -8q14 0 19.5 8t5.5 30v36q0 22 -5.5 30.5t-19.5 8.5h-44v77h44q25 0 25 26v38q0 26 -25 26q-26 0 -26 -26v-31h-88v40q0 49 28.5 70.5t86.5 21.5q59 0 87.5 -21.5t28.5 -70.5v-36q0 -70 -64 -73v-2q64 -1 64 -73v-63
q0 -48 -28.5 -69.5t-87.5 -21.5q-58 0 -86.5 21.5t-28.5 69.5v41z" />
    </font>
</defs>
</svg>
